<?xml version="1.0" encoding="iso-8859-1"?>
<!-- Generator: Adobe Illustrator 19.0.0, SVG Export Plug-In . SVG Version: 6.00 Build 0)  -->
<svg version="1.1" id="Capa_1" xmlns="http://www.w3.org/2000/svg" xmlns:xlink="http://www.w3.org/1999/xlink" x="0px" y="0px"
	 viewBox="0 0 512 512" style="enable-background:new 0 0 512 512;" xml:space="preserve">
<g>
	<g>
		<g>
			<path d="M354.612,408.8l-73.437-40.867c-7.625-3.838-12.42-11.663-12.375-20.2l-0.042-20.475
				c15.774-20.656,27.315-44.224,33.958-69.35c0.145-0.626,0.218-1.266,0.217-1.908v-17.067h25.6
				c14.132-0.015,25.585-11.468,25.6-25.6v-51.2c-0.033-10.813-6.868-20.435-17.067-24.027v-1.573
				C337.066,61.128,275.938,0,200.533,0S63.999,61.128,63.999,136.533v1.573c-10.199,3.592-17.034,13.214-17.067,24.027v51.2
				c0.033,10.813,6.868,20.435,17.067,24.027V256c0.02,18.843,15.29,34.113,34.133,34.133h11.737
				c6.217,13.071,13.72,25.49,22.397,37.075v19.675c0.031,8.267-4.492,15.881-11.767,19.808l-76.1,41.55
				C19.635,421.695,4.23,447.634,4.266,475.817v27.65c-0.001,2.263,0.898,4.434,2.499,6.035c1.6,1.6,3.771,2.499,6.035,2.499
				h375.467c2.263,0.001,4.434-0.898,6.035-2.499c1.6-1.6,2.499-3.771,2.499-6.035v-25.941
				C396.929,448.464,380.584,421.838,354.612,408.8z M337.066,162.133v51.2c-0.005,4.711-3.822,8.529-8.533,8.533h-25.6V153.6h25.6
				C333.244,153.605,337.061,157.422,337.066,162.133z M72.533,221.867c-4.711-0.005-8.529-3.823-8.533-8.533v-51.2
				c0.005-4.711,3.822-8.529,8.533-8.533h25.6v68.267H72.533z M98.133,273.067c-9.421-0.011-17.056-7.645-17.067-17.067v-17.067
				h17.067V256c-0.001,0.642,0.072,1.283,0.217,1.908c1.22,5.133,2.726,10.193,4.51,15.158H98.133z M98.091,136.533H81.066
				C81.14,70.584,134.584,17.141,200.533,17.067c65.949,0.074,119.393,53.518,119.467,119.467h-17.025
				c1.538-20.037-4.888-39.872-17.883-55.2c-17.52-20-45.971-30.133-84.558-30.133s-67.038,10.133-84.558,30.133
				C102.979,96.662,96.553,116.497,98.091,136.533z M379.733,494.933h-358.4l0-19.117c-0.032-21.93,11.954-42.116,31.225-52.583
				l76.075-41.533c12.786-6.907,20.74-20.284,20.7-34.817v-19.675c0.017-3.721-1.199-7.343-3.458-10.3
				c-6.338-8.469-12.003-17.421-16.941-26.775h39.039c3.592,10.199,13.214,17.033,24.027,17.067h25.6
				c14.138,0,25.6-11.462,25.6-25.6c0-14.138-11.462-25.6-25.6-25.6h-25.6c-10.813,0.033-20.435,6.868-24.028,17.067H121.05
				c-2.378-5.869-4.333-11.901-5.851-18.05V136.533c0-0.373-0.025-0.747-0.075-1.117c-1.251-15.524,3.666-30.916,13.683-42.842
				c14.137-16.125,38.271-24.308,71.725-24.308c33.329,0,57.412,8.125,71.575,24.142c10.038,11.986,15.002,27.417,13.833,43.008
				c-0.05,0.37-0.075,0.743-0.075,1.117v118.483c-6.142,22.414-16.558,43.43-30.675,61.892c-2.26,2.957-3.476,6.579-3.458,10.3
				v20.525c-0.095,14.868,8.205,28.518,21.45,35.275l73.454,40.875c20.342,10.124,33.173,30.92,33.096,53.642L379.733,494.933z
				 M183.466,281.6c0.005-4.711,3.822-8.529,8.533-8.533h25.6c4.713,0,8.533,3.821,8.533,8.533s-3.82,8.533-8.533,8.533h-25.6
				C187.289,290.129,183.471,286.311,183.466,281.6z"/>
			<path d="M473.599,239.75l0.208-104.242c23.566-15.852,36.456-43.42,33.511-71.668c-2.945-28.249-21.244-52.564-47.574-63.215
				c-2.631-1.066-5.621-0.755-7.976,0.831c-2.355,1.586-3.768,4.238-3.77,7.077v51.2c-0.005,4.711-3.822,8.529-8.533,8.533h-17.067
				c-4.711-0.005-8.529-3.822-8.533-8.533v-51.2c-0.002-2.839-1.415-5.492-3.77-7.077c-2.355-1.586-5.344-1.897-7.976-0.831
				c-26.369,10.656-44.682,35.022-47.586,63.314c-2.904,28.292,10.078,55.87,33.732,71.661l-0.208,104.358
				c-21.204,14.246-33.923,38.113-33.925,63.658c-0.075,31.322,18.933,59.533,47.991,71.225c2.631,1.065,5.619,0.753,7.974-0.832
				c2.354-1.586,3.767-4.238,3.768-7.076v-51.2c0.005-4.711,3.822-8.529,8.533-8.533h17.067c4.711,0.005,8.529,3.822,8.533,8.533
				v51.2c0.001,2.839,1.413,5.492,3.767,7.077c2.355,1.586,5.344,1.897,7.974,0.831c26.375-10.682,44.687-35.067,47.59-63.375
				C510.236,283.159,497.256,255.565,473.599,239.75z M465.066,352.675v-36.942c-0.015-14.132-11.468-25.585-25.6-25.6h-17.067
				c-14.132,0.015-25.585,11.468-25.6,25.6v36.942c-16.179-11.262-25.758-29.782-25.598-49.494s10.038-38.075,26.398-49.072
				c4.787-3.165,7.686-8.503,7.733-14.242V135.6c-0.048-5.738-2.947-11.077-7.733-14.242c-16.36-10.997-26.238-29.36-26.398-49.072
				s9.419-38.233,25.598-49.494v36.942c0.015,14.132,11.468,25.585,25.6,25.6h17.067c14.132-0.015,25.585-11.468,25.6-25.6V22.792
				c16.179,11.261,25.758,29.782,25.598,49.494c-0.16,19.712-10.038,38.075-26.398,49.072c-4.787,3.165-7.686,8.503-7.733,14.242
				v104.267c0.048,5.738,2.947,11.077,7.733,14.242c16.36,10.997,26.238,29.36,26.398,49.072
				C490.824,322.893,481.245,341.414,465.066,352.675z"/>
		</g>
	</g>
</g>
<g>
</g>
<g>
</g>
<g>
</g>
<g>
</g>
<g>
</g>
<g>
</g>
<g>
</g>
<g>
</g>
<g>
</g>
<g>
</g>
<g>
</g>
<g>
</g>
<g>
</g>
<g>
</g>
<g>
</g>
</svg>
