<svg height="512pt" viewBox="0 -13 512.00003 512" width="512pt" xmlns="http://www.w3.org/2000/svg"><path d="m59.734375 34.132812c-14.140625 0-25.601563 11.460938-25.601563 25.601563 0 14.136719 11.460938 25.597656 25.601563 25.597656 14.136719 0 25.597656-11.460937 25.597656-25.597656 0-14.140625-11.460937-25.601563-25.597656-25.601563zm0 34.132813c-4.714844 0-8.535156-3.820313-8.535156-8.53125 0-4.714844 3.820312-8.535156 8.535156-8.535156 4.710937 0 8.53125 3.820312 8.53125 8.535156 0 4.710937-3.820313 8.53125-8.53125 8.53125zm0 0"/><path d="m128 34.132812c-14.136719 0-25.601562 11.460938-25.601562 25.601563 0 14.136719 11.464843 25.597656 25.601562 25.597656s25.601562-11.460937 25.601562-25.597656c0-14.140625-11.464843-25.601563-25.601562-25.601563zm0 34.132813c-4.710938 0-8.535156-3.820313-8.535156-8.53125 0-4.714844 3.824218-8.535156 8.535156-8.535156s8.535156 3.820312 8.535156 8.535156c0 4.710937-3.824218 8.53125-8.535156 8.53125zm0 0"/><path d="m196.265625 34.132812c-14.136719 0-25.597656 11.460938-25.597656 25.601563 0 14.136719 11.460937 25.597656 25.597656 25.597656 14.140625 0 25.601563-11.460937 25.601563-25.597656 0-14.140625-11.460938-25.601563-25.601563-25.601563zm0 34.132813c-4.710937 0-8.53125-3.820313-8.53125-8.53125 0-4.714844 3.820313-8.535156 8.53125-8.535156 4.714844 0 8.535156 3.820312 8.535156 8.535156 0 4.710937-3.820312 8.53125-8.535156 8.53125zm0 0"/><path d="m366.933594 51.199219h-85.332032c-4.714843 0-8.535156 3.820312-8.535156 8.535156 0 4.710937 3.820313 8.53125 8.535156 8.53125h85.332032c4.710937 0 8.53125-3.820313 8.53125-8.53125 0-4.714844-3.820313-8.535156-8.53125-8.535156zm0 0"/><path d="m460.800781 51.199219h-59.734375c-4.710937 0-8.53125 3.820312-8.53125 8.535156 0 4.710937 3.820313 8.53125 8.53125 8.53125h59.734375c4.710938 0 8.53125-3.820313 8.53125-8.53125 0-4.714844-3.820312-8.535156-8.53125-8.535156zm0 0"/><path d="m469.332031 0h-426.664062c-23.554688.0273438-42.6406252 19.113281-42.667969 42.667969v375.464843c.0273438 23.554688 19.113281 42.640626 42.667969 42.667969h145.066406c4.710937 0 8.53125-3.820312 8.53125-8.535156 0-4.710937-3.820313-8.53125-8.53125-8.53125h-145.066406c-14.140625 0-25.601563-11.460937-25.601563-25.601563v-298.667968h477.867188v298.667968c0 14.140626-11.460938 25.601563-25.601563 25.601563h-145.066406c-4.710937 0-8.53125 3.820313-8.53125 8.53125 0 4.714844 3.820313 8.535156 8.53125 8.535156h145.066406c23.554688-.027343 42.640625-19.113281 42.667969-42.667969v-375.464843c-.027344-23.554688-19.113281-42.6406252-42.667969-42.667969zm-452.265625 102.398438v-59.730469c0-14.140625 11.460938-25.601563 25.601563-25.601563h426.664062c14.140625 0 25.601563 11.460938 25.601563 25.601563v59.730469zm0 0"/><path d="m42.667969 366.933594h34.132812c4.710938 0 8.53125-3.820313 8.53125-8.535156 0-4.710938-3.820312-8.53125-8.53125-8.53125h-34.132812c-4.714844 0-8.535157 3.820312-8.535157 8.53125 0 4.714843 3.820313 8.535156 8.535157 8.535156zm0 0"/><path d="m42.667969 332.800781h34.132812c4.710938 0 8.53125-3.820312 8.53125-8.535156 0-4.710937-3.820312-8.53125-8.53125-8.53125h-34.132812c-4.714844 0-8.535157 3.820313-8.535157 8.53125 0 4.714844 3.820313 8.535156 8.535157 8.535156zm0 0"/><path d="m42.667969 401.066406h59.730469c4.714843 0 8.535156-3.820312 8.535156-8.53125 0-4.714844-3.820313-8.535156-8.535156-8.535156h-59.730469c-4.714844 0-8.535157 3.820312-8.535157 8.535156 0 4.710938 3.820313 8.53125 8.535157 8.53125zm0 0"/><path d="m136.535156 384c-4.714844 0-8.535156 3.820312-8.535156 8.535156 0 4.710938 3.820312 8.53125 8.535156 8.53125h42.398438l70.589844 82.355469c.136718.152344.339843.222656.484374.367187.566407.570313 1.210938 1.054688 1.914063 1.441407.273437.171875.558594.324219.851563.460937 2.058593.945313 4.429687.945313 6.484374 0 .296876-.136718.582032-.289062.855469-.460937.703125-.386719 1.347657-.871094 1.910157-1.441407.144531-.144531.351562-.214843.488281-.367187l70.554687-82.355469h42.398438c4.714844 0 8.535156-3.820312 8.535156-8.53125 0-4.714844-3.820312-8.535156-8.535156-8.535156h-27.765625l14.625-17.066406h38.742187c4.714844 0 8.535156-3.820313 8.535156-8.535156 0-4.710938-3.820312-8.53125-8.535156-8.53125h-24.113281l90.324219-105.378907c.289062-.40625.542968-.839843.75-1.296875.261718-.371094.488281-.761718.683594-1.167968.292968-.808594.464843-1.652344.503906-2.511719 0-.203125.117187-.375.117187-.578125v-.058594c-.011719-1.078125-.230469-2.144531-.640625-3.140625-.183594-.367187-.402344-.71875-.648437-1.050781-.257813-.527344-.566407-1.027344-.917969-1.492188l-85.335938-93.867187c-.269531-.222657-.554687-.425781-.851562-.613281-.265625-.304688-.550781-.589844-.855469-.855469-.195312-.117188-.425781-.128907-.621093-.238281-.476563-.238282-.972657-.429688-1.484376-.570313-.59375-.195313-1.207031-.324219-1.828124-.386719-.222657 0-.417969-.136718-.648438-.136718h-238.964844c-.230468 0-.429687.121093-.648437.136718-.621094.0625-1.234375.191406-1.828125.386719-.511719.140625-1.003906.332031-1.476563.570313-.203125.109374-.433593.121093-.632812.238281-.304688.265625-.589844.550781-.851563.855469-.296875.1875-.582031.390624-.851562.613281l-85.335938 93.867187c-.355468.464844-.664062.964844-.921875 1.492188-.242187.332031-.460937.683594-.648437 1.050781-.421875.992187-.648438 2.058594-.671875 3.140625v.058594c0 .203125.101562.375.117187.578125.039063.859375.210938 1.703125.503906 2.511719.195313.40625.421876.796874.683594 1.167968.207032.457032.460938.890625.75 1.296875l90.324219 105.378907h-24.113281c-4.714844 0-8.535156 3.820312-8.535156 8.53125 0 4.714843 3.820312 8.535156 8.535156 8.535156h38.742187l14.625 17.066406zm-1.203125-224.921875 45.386719 71.320313h-110.226562zm306.175781 71.320313h-110.226562l45.386719-71.320313zm-136.707031 17.066406-48.800781 195.21875-48.800781-195.21875zm-93.011719-17.066406 44.210938-69.433594 44.1875 69.433594zm110.582032 17.066406h119.878906l-169.183594 197.402344zm-6.636719-24.429688-44.1875-69.433594h88.371094zm-119.46875 0-44.183594-69.433594h88.371094zm-6.664063 24.429688 49.332032 197.402344-169.183594-197.402344zm0 0"/><path d="m469.332031 349.867188h-34.132812c-4.710938 0-8.53125 3.820312-8.53125 8.53125 0 4.714843 3.820312 8.535156 8.53125 8.535156h34.132812c4.714844 0 8.535157-3.820313 8.535157-8.535156 0-4.710938-3.820313-8.53125-8.535157-8.53125zm0 0"/><path d="m469.332031 315.734375h-34.132812c-4.710938 0-8.53125 3.820313-8.53125 8.53125 0 4.714844 3.820312 8.535156 8.53125 8.535156h34.132812c4.714844 0 8.535157-3.820312 8.535157-8.535156 0-4.710937-3.820313-8.53125-8.535157-8.53125zm0 0"/><path d="m469.332031 384h-59.730469c-4.714843 0-8.535156 3.820312-8.535156 8.535156 0 4.710938 3.820313 8.53125 8.535156 8.53125h59.730469c4.714844 0 8.535157-3.820312 8.535157-8.53125 0-4.714844-3.820313-8.535156-8.535157-8.535156zm0 0"/></svg>