<?xml version="1.0"?>
<svg xmlns="http://www.w3.org/2000/svg" id="Layer_1" data-name="Layer 1" viewBox="0 0 512 512" width="512" height="512"><title>Website Database</title><path d="M446.909,39.687H65.091A25.119,25.119,0,0,0,40,64.777V381.262a25.12,25.12,0,0,0,25.091,25.091h107.1A24.274,24.274,0,1,0,201.7,376.794v-3.37h21.408a6,6,0,0,0,6-6V323.573H250V424.52a24.272,24.272,0,1,0,12,0V323.573h20.891v25.851a6,6,0,0,0,6,6H310.3v21.642a24.273,24.273,0,1,0,29.574,29.287H446.909A25.12,25.12,0,0,0,472,381.262V64.777A25.119,25.119,0,0,0,446.909,39.687ZM268.272,448.041A12.272,12.272,0,1,1,256,435.769,12.286,12.286,0,0,1,268.272,448.041ZM65.091,51.687H446.909A13.1,13.1,0,0,1,460,64.777v52.91H52V64.777A13.1,13.1,0,0,1,65.091,51.687ZM207.974,400.314A12.273,12.273,0,1,1,195.7,388.042,12.287,12.287,0,0,1,207.974,400.314Zm-28.9-167.357a53.229,53.229,0,0,1,94.059-34.151,6,6,0,0,0,6.328,1.9,36.3,36.3,0,0,1,46.652,33.334,6,6,0,0,0,4.809,5.648,36.309,36.309,0,0,1-7.233,71.888H188.308a36.313,36.313,0,0,1-13.016-70.2,6,6,0,0,0,3.847-5.873C179.1,234.655,179.077,233.806,179.077,232.957ZM316.3,412.859a12.273,12.273,0,1,1,12.272-12.272A12.287,12.287,0,0,1,316.3,412.859Zm130.61-18.506H339.756A24.361,24.361,0,0,0,322.3,377.066V349.424a6,6,0,0,0-6-6H294.891V323.573h28.8a48.31,48.31,0,0,0,14.029-94.538A48.326,48.326,0,0,0,279.8,188.241a65.23,65.23,0,0,0-112.712,43.622,48.311,48.311,0,0,0,21.222,91.71h28.8v37.851H195.7a6,6,0,0,0-6,6v9.37a24.358,24.358,0,0,0-17.529,17.559H65.091A13.106,13.106,0,0,1,52,381.262V129.687H460V381.262A13.106,13.106,0,0,1,446.909,394.353Z"/><path d="M85,105.02a21,21,0,1,0-21-21A21.024,21.024,0,0,0,85,105.02Zm0-30a9,9,0,1,1-9,9A9.01,9.01,0,0,1,85,75.02Z"/><path d="M139,105.02a21,21,0,1,0-21-21A21.024,21.024,0,0,0,139,105.02Zm0-30a9,9,0,1,1-9,9A9.01,9.01,0,0,1,139,75.02Z"/><path d="M192,105.02a21,21,0,1,0-21-21A21.024,21.024,0,0,0,192,105.02Zm0-30a9,9,0,1,1-9,9A9.01,9.01,0,0,1,192,75.02Z"/><path d="M271,89.02H443a6,6,0,0,0,0-12H271a6,6,0,0,0,0,12Z"/></svg>
