<?xml version="1.0" encoding="iso-8859-1"?>
<!-- Generator: Adobe Illustrator 19.0.0, SVG Export Plug-In . SVG Version: 6.00 Build 0)  -->
<svg version="1.1" id="Capa_1" xmlns="http://www.w3.org/2000/svg" xmlns:xlink="http://www.w3.org/1999/xlink" x="0px" y="0px"
	 viewBox="0 0 512 512" style="enable-background:new 0 0 512 512;" xml:space="preserve">
<g>
	<g>
		<g>
			<path d="M469.333,0H42.667C19.114,0.028,0.028,19.114,0,42.667v358.391c0.028,23.553,19.114,42.639,42.667,42.667H179.2V460.8
				h-34.133c-18.843,0.02-34.113,15.29-34.133,34.133v8.533c-0.001,2.263,0.898,4.434,2.499,6.035c1.6,1.6,3.771,2.499,6.035,2.499
				h273.067c2.263,0.001,4.434-0.898,6.035-2.499c1.6-1.6,2.499-3.771,2.499-6.035v-8.533c-0.02-18.843-15.29-34.113-34.133-34.133
				H332.8v-17.075h136.533c23.553-0.028,42.639-19.114,42.667-42.667V42.667C511.972,19.114,492.886,0.028,469.333,0z
				 M366.933,477.867c9.421,0.011,17.056,7.645,17.067,17.067H128c0.011-9.421,7.645-17.056,17.067-17.067H366.933z M196.267,460.8
				v-17.067h119.467V460.8H196.267z M494.933,401.058c-0.015,14.132-11.468,25.585-25.6,25.6H42.667
				c-14.132-0.015-25.585-11.468-25.6-25.6v-25.591h477.867V401.058z M494.933,358.4H17.067V42.667
				c0.015-14.132,11.468-25.585,25.6-25.6h426.667c14.132,0.015,25.585,11.468,25.6,25.6V358.4z"/>
			<path d="M247.467,34.133H59.733c-14.132,0.015-25.585,11.468-25.6,25.6v256c0.015,14.132,11.468,25.585,25.6,25.6h187.733
				c14.132-0.015,25.585-11.468,25.6-25.6v-256C273.051,45.601,261.599,34.149,247.467,34.133z M256,315.733
				c-0.005,4.711-3.822,8.529-8.533,8.533H59.733c-4.711-0.005-8.529-3.822-8.533-8.533V204.8H256V315.733z M256,187.733H51.2
				v-102.4H256V187.733z M256,68.267H51.2v-8.533c0.005-4.711,3.822-8.529,8.533-8.533h187.733c4.711,0.005,8.529,3.822,8.533,8.533
				V68.267z"/>
			<path d="M76.8,238.933h59.733c4.713,0,8.533-3.82,8.533-8.533s-3.82-8.533-8.533-8.533H76.8c-4.713,0-8.533,3.82-8.533,8.533
				S72.087,238.933,76.8,238.933z"/>
			<path d="M76.8,273.067h59.733c4.713,0,8.533-3.82,8.533-8.533s-3.82-8.533-8.533-8.533H76.8c-4.713,0-8.533,3.82-8.533,8.533
				S72.087,273.067,76.8,273.067z"/>
			<path d="M76.8,307.2h59.733c4.713,0,8.533-3.82,8.533-8.533s-3.82-8.533-8.533-8.533H76.8c-4.713,0-8.533,3.82-8.533,8.533
				S72.087,307.2,76.8,307.2z"/>
			<path d="M170.667,238.933H230.4c4.713,0,8.533-3.82,8.533-8.533s-3.82-8.533-8.533-8.533h-59.733
				c-4.713,0-8.533,3.82-8.533,8.533S165.954,238.933,170.667,238.933z"/>
			<path d="M170.667,273.067H230.4c4.713,0,8.533-3.82,8.533-8.533S235.113,256,230.4,256h-59.733c-4.713,0-8.533,3.82-8.533,8.533
				S165.954,273.067,170.667,273.067z"/>
			<path d="M170.667,307.2H230.4c4.713,0,8.533-3.82,8.533-8.533s-3.82-8.533-8.533-8.533h-59.733c-4.713,0-8.533,3.82-8.533,8.533
				S165.954,307.2,170.667,307.2z"/>
			<path d="M384,221.867c-36.025,0-70.975,29.508-88.608,47.092c-3.366,3.345-5.258,7.894-5.258,12.64
				c0,4.745,1.893,9.295,5.258,12.64c17.633,17.588,52.583,47.096,88.608,47.096c36.025,0,70.975-29.508,88.608-47.092
				c3.366-3.345,5.258-7.894,5.258-12.64s-1.893-9.295-5.258-12.64C454.975,251.375,420.025,221.867,384,221.867z M326.982,299.411
				c-6.849-5.361-13.374-11.123-19.54-17.257v-1.108c6.166-6.134,12.691-11.897,19.54-17.257
				C323.362,275.387,323.362,287.813,326.982,299.411z M384,324.267c-23.553-0.028-42.639-19.114-42.667-42.667
				c0-23.564,19.102-42.667,42.667-42.667c23.564,0,42.667,19.103,42.667,42.667S407.564,324.267,384,324.267z M460.558,282.154
				c-6.166,6.134-12.691,11.897-19.54,17.257c3.62-11.598,3.62-24.025,0-35.623c6.849,5.361,13.374,11.123,19.54,17.257V282.154z"/>
			<path d="M384,256c-14.138,0-25.6,11.462-25.6,25.6c0,14.138,11.462,25.6,25.6,25.6c14.138,0,25.6-11.462,25.6-25.6
				C409.585,267.468,398.132,256.015,384,256z M384,290.133c-4.713,0-8.533-3.82-8.533-8.533s3.82-8.533,8.533-8.533
				s8.533,3.821,8.533,8.533C392.529,286.311,388.711,290.129,384,290.133z"/>
			<path d="M426.667,153.6h-85.333c-2.263-0.001-4.434,0.898-6.035,2.499c-1.6,1.6-2.499,3.771-2.499,6.035v34.133
				c-0.001,2.263,0.898,4.434,2.499,6.035c1.6,1.6,3.771,2.499,6.035,2.499h85.333c2.263,0.001,4.434-0.898,6.035-2.499
				c1.6-1.6,2.499-3.771,2.499-6.035v-34.133c0.001-2.263-0.898-4.434-2.499-6.035C431.101,154.498,428.93,153.599,426.667,153.6z
				 M418.133,187.733h-68.267v-17.067h68.267V187.733z"/>
			<path d="M315.733,119.467H332.8V128c-0.001,2.263,0.898,4.434,2.499,6.035c1.6,1.6,3.771,2.499,6.035,2.499h85.333
				c2.263,0.001,4.434-0.898,6.035-2.499c1.6-1.6,2.499-3.771,2.499-6.035v-8.533h17.067c3.451,0,6.563-2.079,7.883-5.268
				c1.321-3.189,0.59-6.859-1.85-9.299l-68.267-68.267c-1.6-1.601-3.77-2.5-6.033-2.5s-4.433,0.899-6.033,2.5L309.7,104.9
				c-2.441,2.44-3.171,6.111-1.85,9.299C309.17,117.388,312.282,119.467,315.733,119.467z M384,54.733l47.667,47.667h-5
				c-2.263-0.001-4.434,0.898-6.035,2.499c-1.6,1.6-2.499,3.771-2.499,6.035v8.533h-68.267v-8.533
				c0.001-2.263-0.898-4.434-2.499-6.035c-1.6-1.6-3.771-2.499-6.035-2.499h-5L384,54.733z"/>
			<path d="M132.717,169.767c2.89,1.445,6.349,1.132,8.933-0.808l34.133-25.6c2.151-1.61,3.417-4.139,3.417-6.825
				c0-2.686-1.266-5.215-3.417-6.825l-34.133-25.6c-2.585-1.94-6.044-2.253-8.935-0.808c-2.891,1.445-4.716,4.401-4.715,7.633v51.2
				C127.999,165.366,129.825,168.321,132.717,169.767z M145.067,128l11.375,8.533l-11.375,8.533V128z"/>
		</g>
	</g>
</g>
<g>
</g>
<g>
</g>
<g>
</g>
<g>
</g>
<g>
</g>
<g>
</g>
<g>
</g>
<g>
</g>
<g>
</g>
<g>
</g>
<g>
</g>
<g>
</g>
<g>
</g>
<g>
</g>
<g>
</g>
</svg>
